<svg width="227" height="82" viewBox="0 0 227 82" fill="none" xmlns="http://www.w3.org/2000/svg">
<path d="M149 23.457C155.589 10.1591 169.436 1 185.451 1C207.846 1 226 18.9086 226 41C226 63.0914 207.846 81 185.451 81C169.445 81 155.605 71.8515 149.011 58.5661" stroke="url(#paint0_linear_4206_33339)"/>
<path d="M161.356 35.2L165.038 45H163.302L162.252 42.144H158.094L157.086 45H155.378L159.018 35.2H161.356ZM158.64 40.646H161.706L160.152 36.502L158.64 40.646ZM166.174 45V35.2H173.02V36.712H167.826V39.274H172.138V40.786H167.826V45H166.174ZM179.545 41.052L182.247 45H180.329L177.753 41.178H175.975V45H174.323V35.2H178.495C180.581 35.2 181.897 36.418 181.897 38.182C181.897 39.652 181.015 40.73 179.545 41.052ZM175.975 39.722H178.369C179.559 39.722 180.189 39.162 180.189 38.21C180.189 37.258 179.559 36.712 178.369 36.712H175.975V39.722ZM183.511 45V35.2H185.163V45H183.511ZM191.36 35.2C193.432 35.2 194.734 36.418 194.734 38.224C194.734 40.044 193.432 41.276 191.36 41.276H188.882V45H187.23V35.2H191.36ZM191.248 39.764C192.41 39.764 193.026 39.204 193.026 38.224C193.026 37.258 192.41 36.712 191.248 36.712H188.882V39.764H191.248ZM200.568 34.99C203.48 34.99 205.44 36.964 205.44 40.1C205.44 43.208 203.48 45.21 200.568 45.21C197.642 45.21 195.682 43.208 195.682 40.1C195.682 36.964 197.642 34.99 200.568 34.99ZM200.568 43.754C202.486 43.754 203.732 42.34 203.732 40.1C203.732 37.846 202.472 36.446 200.568 36.446C198.65 36.446 197.39 37.846 197.39 40.1C197.39 42.34 198.65 43.754 200.568 43.754ZM207.015 45V35.2H208.667V43.46H213.581V45H207.015Z" fill="white"/>
<path d="M76 23.457C82.5891 10.1591 96.4359 1 112.451 1C134.846 1 153 18.9086 153 41C153 63.0914 134.846 81 112.451 81C96.4452 81 82.6052 71.8515 76.0115 58.5661" stroke="url(#paint1_linear_4206_33339)"/>
<path d="M83.316 45V35.2H90.162V36.712H84.968V39.176H89.28V40.688H84.968V43.488H90.442V45H83.316ZM91.7078 41.178V35.2H93.3598V41.178C93.3598 42.774 94.3538 43.754 95.8658 43.754C97.3918 43.754 98.3718 42.774 98.3718 41.178V35.2H100.024V41.178C100.024 43.628 98.3718 45.21 95.8658 45.21C93.3738 45.21 91.7078 43.628 91.7078 41.178ZM107.174 41.052C108.644 40.73 109.526 39.652 109.526 38.182C109.526 36.418 108.21 35.2 106.124 35.2H101.952V45H103.604V41.178H105.382L107.958 45H109.876L107.174 41.052ZM103.604 39.722V36.712H105.998C107.188 36.712 107.818 37.258 107.818 38.21C107.818 39.162 107.188 39.722 105.998 39.722H103.604ZM115.522 34.99C112.596 34.99 110.636 36.964 110.636 40.1C110.636 43.208 112.596 45.21 115.522 45.21C118.434 45.21 120.394 43.208 120.394 40.1C120.394 36.964 118.434 34.99 115.522 34.99ZM115.522 43.754C113.604 43.754 112.344 42.34 112.344 40.1C112.344 37.846 113.604 36.446 115.522 36.446C117.426 36.446 118.686 37.846 118.686 40.1C118.686 42.34 117.44 43.754 115.522 43.754ZM126.099 35.2H121.969V45H123.621V41.276H126.099C128.171 41.276 129.473 40.044 129.473 38.224C129.473 36.418 128.171 35.2 126.099 35.2ZM125.987 39.764H123.621V36.712H125.987C127.149 36.712 127.765 37.258 127.765 38.224C127.765 39.204 127.149 39.764 125.987 39.764ZM135.306 34.99C132.38 34.99 130.42 36.964 130.42 40.1C130.42 43.208 132.38 45.21 135.306 45.21C138.218 45.21 140.178 43.208 140.178 40.1C140.178 36.964 138.218 34.99 135.306 34.99ZM135.306 43.754C133.388 43.754 132.128 42.34 132.128 40.1C132.128 37.846 133.388 36.446 135.306 36.446C137.21 36.446 138.47 37.846 138.47 40.1C138.47 42.34 137.224 43.754 135.306 43.754ZM141.753 45V35.2H143.405V43.46H148.319V45H141.753Z" fill="white"/>
<path d="M80.5 41C80.5 62.8094 62.5973 80.5 40.5 80.5C18.4027 80.5 0.5 62.8094 0.5 41C0.5 19.1906 18.4027 1.5 40.5 1.5C62.5973 1.5 80.5 19.1906 80.5 41Z" stroke="url(#paint2_linear_4206_33339)"/>
<path d="M7.316 45V35.2H8.968V45H7.316ZM17.9233 35.2H19.5333V45H16.8453L12.6453 36.544V45H11.0353V35.2H13.7373L17.9233 43.642V35.2ZM28.7022 36.74H25.5662V45H23.9142V36.74H20.7922V35.2H28.7022V36.74ZM29.9583 45V35.2H36.8043V36.712H31.6103V39.176H35.9223V40.688H31.6103V43.488H37.0843V45H29.9583ZM43.7121 41.052C45.1821 40.73 46.0641 39.652 46.0641 38.182C46.0641 36.418 44.7481 35.2 42.6621 35.2H38.4901V45H40.1421V41.178H41.9201L44.4961 45H46.4141L43.7121 41.052ZM40.1421 39.722V36.712H42.5361C43.7261 36.712 44.3561 37.258 44.3561 38.21C44.3561 39.162 43.7261 39.722 42.5361 39.722H40.1421ZM51.8081 35.2H47.6781V45H49.3301V41.276H51.8081C53.8801 41.276 55.1821 40.044 55.1821 38.224C55.1821 36.418 53.8801 35.2 51.8081 35.2ZM51.6961 39.764H49.3301V36.712H51.6961C52.8581 36.712 53.4741 37.258 53.4741 38.224C53.4741 39.204 52.8581 39.764 51.6961 39.764ZM61.0157 34.99C58.0897 34.99 56.1297 36.964 56.1297 40.1C56.1297 43.208 58.0897 45.21 61.0157 45.21C63.9277 45.21 65.8877 43.208 65.8877 40.1C65.8877 36.964 63.9277 34.99 61.0157 34.99ZM61.0157 43.754C59.0977 43.754 57.8377 42.34 57.8377 40.1C57.8377 37.846 59.0977 36.446 61.0157 36.446C62.9197 36.446 64.1797 37.846 64.1797 40.1C64.1797 42.34 62.9337 43.754 61.0157 43.754ZM67.4624 45V35.2H69.1144V43.46H74.0284V45H67.4624Z" fill="white"/>
<defs>
<linearGradient id="paint0_linear_4206_33339" x1="149" y1="41" x2="227.15" y2="78.6098" gradientUnits="userSpaceOnUse">
<stop stop-color="#003CF5"/>
<stop offset="1" stop-color="#8DCAFE"/>
</linearGradient>
<linearGradient id="paint1_linear_4206_33339" x1="76" y1="41" x2="154.15" y2="78.6098" gradientUnits="userSpaceOnUse">
<stop stop-color="#003CF5"/>
<stop offset="1" stop-color="#8DCAFE"/>
</linearGradient>
<linearGradient id="paint2_linear_4206_33339" x1="3.01749e-07" y1="41" x2="80.5945" y2="81.801" gradientUnits="userSpaceOnUse">
<stop stop-color="#003CF5"/>
<stop offset="1" stop-color="#8DCAFE"/>
</linearGradient>
</defs>
</svg>
