  <svg width="24" height="24" viewBox="0 0 24 24" fill="none" xmlns="http://www.w3.org/2000/svg">
<path d="M13.1531 12.1208C13.1531 14.9488 10.8802 17.2414 8.07665 17.2414C5.27306 17.2414 3 14.9483 3 12.1208C3 9.29327 5.27288 7 8.07665 7C10.8804 7 13.1531 9.29275 13.1531 12.1208Z" fill="black"/>
<path d="M18.7219 12.1208C18.7219 14.7828 17.5855 16.9416 16.1836 16.9416C14.7817 16.9416 13.6453 14.7828 13.6453 12.1208C13.6453 9.45876 14.7815 7.29993 16.1834 7.29993C17.5853 7.29993 18.7217 9.45807 18.7217 12.1208" fill="black"/>
<path d="M21.0001 12.1207C21.0001 14.5052 20.6005 16.4394 20.1074 16.4394C19.6143 16.4394 19.2148 14.5057 19.2148 12.1207C19.2148 9.73569 19.6145 7.802 20.1074 7.802C20.6003 7.802 21.0001 9.73552 21.0001 12.1207Z" fill="black"/>
</svg>
