<svg width="24" height="24" viewBox="0 0 24 24" fill="none" xmlns="http://www.w3.org/2000/svg">
<path d="M18.7335 8.68535C18.7335 8.80002 18.7335 8.91335 18.7335 9.14269C18.7335 13.4854 15.4188 18.5147 9.3615 18.5147C7.5335 18.5147 5.81883 17.9427 4.3335 17.0294C4.5615 17.0294 4.9055 17.0294 5.1335 17.0294C6.61883 17.0294 8.1055 16.4574 9.24816 15.6574C7.76283 15.6574 6.62016 14.6294 6.16283 13.372C6.39083 13.372 6.62016 13.4867 6.73483 13.4867C7.0775 13.4867 7.30683 13.4867 7.6495 13.372C6.16416 13.0294 5.0215 11.772 5.0215 10.172C5.47883 10.4 5.93616 10.5147 6.50683 10.6294C5.59216 9.82935 5.0215 8.91469 5.0215 7.77202C5.0215 7.20002 5.13616 6.62935 5.47883 6.17202C7.07883 8.11469 9.47883 9.48669 12.2215 9.60002C12.2215 9.37202 12.1068 9.14269 12.1068 8.80002C12.1068 6.97202 13.5922 5.48535 15.4215 5.48535C16.3362 5.48535 17.2495 5.82802 17.8215 6.51335C18.6215 6.39869 19.3068 6.05602 19.8788 5.71335C19.6508 6.51335 19.0788 7.08535 18.3935 7.54135C19.0788 7.42669 19.6508 7.31335 20.3362 6.96935C19.8762 7.65735 19.3055 8.22802 18.7335 8.68535Z" fill="black"/>
</svg>
